# xmcd
#
# Track frame offsets:
#	151
#	13162
#	26129
#	45649
#	57810
#	69846
#	85515
#	99613
#	116038
#	128805
#	142038
#	159202
#	172437
#
# Disc length: 2481 seconds
#
# Revision: 1
# Processed by: cddbd v1.5PL3 Copyright (c) Steve Scherf et al.
# Submitted via: audiograbber 1.81.03
#
DISCID=ae09af0d
DTITLE=Alec Beckett - Legends Album
DYEAR=2001
DGENRE=Ballad
TTITLE0=Slim Dusty You're A Legend
TTITLE1=Fighting Side Of Me
TTITLE2=Something In The Pilliga
TTITLE3=Folsom Prison Blues
TTITLE4=Ballad Of Greenvale
TTITLE5=I Just Wanna Dance With You
TTITLE6=Branded Man
TTITLE7=Blue Eyes Crying In The Rain
TTITLE8=Sing Me Back Home
TTITLE9=Save The Last Dance For Me
TTITLE10=Living On Love
TTITLE11=Have I Told You Lately (that I love You)
TTITLE12=Lonesome Fugutive
EXTD=
EXTT0=
EXTT1=
EXTT2=
EXTT3=
EXTT4=
EXTT5=
EXTT6=
EXTT7=
EXTT8=
EXTT9=
EXTT10=
EXTT11=
EXTT12=
PLAYORDER=
